<?xml version="1.0" encoding="UTF-8"?>
<svg width="37px" height="37px" viewBox="0 0 37 37" version="1.1" xmlns="http://www.w3.org/2000/svg" xmlns:xlink="http://www.w3.org/1999/xlink">
    <!-- Generator: Sketch 57.1 (83088) - https://sketch.com -->
    <title>twitter</title>
    <desc>Created with Sketch.</desc>
    <g id="Pages" stroke="none" stroke-width="1" fill="none" fill-rule="evenodd">
        <g id="Catalog" transform="translate(-27.000000, -1583.000000)" fill="#323232" fill-rule="nonzero">
            <g id="Подвал" transform="translate(26.000000, 1542.000000)">
                <g id="Соцсети" transform="translate(0.000000, 38.000000)">
                    <g id="Тветер">
                        <g id="loupe-dark" transform="translate(4.000000, 4.000000)">
                            <path d="M30.2450526,27.8349474 L21.4736842,19.0652632 C22.842244,17.1993985 23.5797638,14.9455379 23.5789474,12.6315789 C23.5789474,6.58551432 18.6776436,1.68421053 12.6315789,1.68421053 C6.58551432,1.68421053 1.68421053,6.58551432 1.68421053,12.6315789 C1.68421053,18.6776436 6.58551432,23.5789474 12.6315789,23.5789474 C14.9587458,23.5790646 17.2247308,22.8335738 19.0972632,21.4517895 L27.8635789,30.2164211 L30.2450526,27.8349474 Z M12.6315789,20.2105263 C8.45305263,20.2105263 5.05263158,16.8101053 5.05263158,12.6315789 C5.05263158,8.45305263 8.45305263,5.05263158 12.6315789,5.05263158 C16.8101053,5.05263158 20.2105263,8.45305263 20.2105263,12.6315789 C20.2105263,16.8101053 16.8101053,20.2105263 12.6315789,20.2105263 Z" id="Shape"></path>
                        </g>
                    </g>
                </g>
            </g>
        </g>
    </g>
</svg>